static_grf.mot
version=1
nRows=12
nColumns 19
inDegrees=yes
endheader
time	1_ground_force_vx	1_ground_force_vy	1_ground_force_vz	1_ground_force_px	1_ground_force_py	1_ground_force_pz	1_ground_torque_x	1_ground_torque_y	1_ground_torque_z	2_ground_force_vx	2_ground_force_vy	2_ground_force_vz	2_ground_force_px	2_ground_force_py	2_ground_force_pz	2_ground_torque_x	2_ground_torque_y	2_ground_torque_z
            0.977500	           -3.024337	          362.713895	          -45.119837	           -0.256791	            0.006271	           -0.417596	           -0.041787	            5.011569	           -0.623415	            1.662540	          530.944286	           44.598018	           -0.272307	            0.005390	           -0.666827	           -0.014732	           -4.704881	           -0.395198
            0.978000	           -3.070425	          363.435146	          -45.162491	           -0.256954	            0.006269	           -0.417074	           -0.042441	            5.023585	           -0.624259	            1.565579	          531.864210	           44.742127	           -0.272305	            0.005392	           -0.667326	           -0.013898	           -4.721419	           -0.397181
            0.978500	           -2.978155	          363.974751	          -44.885265	           -0.256695	            0.006267	           -0.416644	           -0.041539	            5.076670	           -0.626054	            1.616396	          530.759703	           44.691237	           -0.272349	            0.005390	           -0.666698	           -0.014438	           -4.740879	           -0.399193
            0.979000	           -3.162372	          363.615757	          -45.253203	           -0.256644	            0.006270	           -0.417215	           -0.043610	            5.014406	           -0.624060	            1.521223	          531.128817	           44.364094	           -0.272229	            0.005391	           -0.666882	           -0.013425	           -4.687441	           -0.391532
            0.979500	           -3.070198	          363.434753	          -45.070780	           -0.256685	            0.006270	           -0.417220	           -0.042779	            5.063918	           -0.627994	            1.570813	          530.391754	           44.549159	           -0.272527	            0.005389	           -0.666581	           -0.013913	           -4.697628	           -0.394568
            0.980000	           -2.932504	          362.533420	          -45.074986	           -0.256976	            0.006271	           -0.417462	           -0.041097	            5.080642	           -0.631693	            1.473791	          531.312058	           44.552483	           -0.272176	            0.005391	           -0.666904	           -0.013021	           -4.694236	           -0.393629
            0.980500	           -3.529035	          363.795785	          -45.205660	           -0.256752	            0.006269	           -0.417141	           -0.048017	            4.949892	           -0.615079	            1.287700	          530.943268	           44.504321	           -0.272246	            0.005391	           -0.666785	           -0.011267	           -4.645613	           -0.389401
            0.981000	           -3.162114	          364.696564	          -45.065141	           -0.256736	            0.006267	           -0.416609	           -0.043574	            5.025577	           -0.621005	            1.382708	          530.575492	           44.456039	           -0.272310	            0.005390	           -0.666635	           -0.012102	           -4.643679	           -0.389086
            0.981500	           -2.978691	          363.795498	          -45.115313	           -0.256913	            0.006270	           -0.417266	           -0.041376	            5.053410	           -0.626688	            1.472400	          531.680964	           44.413014	           -0.272332	            0.005391	           -0.667125	           -0.012922	           -4.666180	           -0.389781
            0.982000	           -3.024795	          363.976118	          -45.206139	           -0.256718	            0.006268	           -0.416836	           -0.041502	            4.993999	           -0.620259	            1.474558	          531.127142	           44.786467	           -0.272367	            0.005391	           -0.667023	           -0.012949	           -4.664164	           -0.393298
            0.982500	           -3.116951	          363.436317	          -45.437513	           -0.256993	            0.006269	           -0.417056	           -0.043251	            5.043054	           -0.630492	            1.333864	          531.127806	           44.458030	           -0.272343	            0.005390	           -0.666666	           -0.011622	           -4.627685	           -0.387360
            0.983000	           -3.070473	          363.074811	          -45.209889	           -0.256659	            0.006271	           -0.417448	           -0.042601	            5.037485	           -0.627265	            1.284377	          531.864032	           44.507606	           -0.272533	            0.005390	           -0.666968	           -0.011224	           -4.647765	           -0.388936
